<svg xmlns="http://www.w3.org/2000/svg" version="1.1" xmlns:xlink="http://www.w3.org/1999/xlink" xmlns:svgjs="http://svgjs.dev/svgjs" width="1000" height="623" viewBox="0 0 1000 623"><g transform="matrix(1,0,0,1,-0.6060606060606233,0.2522267206477409)"><svg viewBox="0 0 396 247" data-background-color="#ffffff" preserveAspectRatio="xMidYMid meet" height="623" width="1000" xmlns="http://www.w3.org/2000/svg" xmlns:xlink="http://www.w3.org/1999/xlink"><g id="tight-bounds" transform="matrix(1,0,0,1,0.2400000000000091,-0.09999999999999432)"><svg viewBox="0 0 395.52 247.2" height="247.2" width="395.52"><g><svg></svg></g><g><svg viewBox="0 0 395.52 247.2" height="247.2" width="395.52"><g transform="matrix(1,0,0,1,39.55199999999999,92.2336495488471)"><svg viewBox="0 0 316.416 62.732700902305794" height="62.732700902305794" width="316.416"><g><svg viewBox="0 0 316.416 62.732700902305794" height="62.732700902305794" width="316.416"><g><svg viewBox="0 0 316.416 62.732700902305794" height="62.732700902305794" width="316.416"><g><svg viewBox="0 0 316.416 62.732700902305794" height="62.732700902305794" width="316.416"><g><svg viewBox="0 0 316.416 62.732700902305794" height="62.732700902305794" width="316.416"><g><svg viewBox="0 0 316.416 38.41148309006764" height="38.41148309006764" width="316.416"><g transform="matrix(1,0,0,1,0,0)"><svg width="316.416" viewBox="1.3200000524520874 -32.810001373291016 274.28997802734375 33.30000305175781" height="38.41148309006764" data-palette-color="#1c4b82"><path d="M19.09-32.23L19.09-32.23 29.35-6.64Q30.08-4.69 30.81-3.08L30.81-3.08Q31.1-2.34 32.37-1.9 33.64-1.46 34.23-1.46L34.23-1.46Q34.42-1.46 34.42-0.59L34.42-0.59Q34.42 0 34.33 0.15L34.33 0.15Q28.47-0.15 28.17-0.15L28.17-0.15Q27.83-0.15 21.83 0.15L21.83 0.15Q21.63-0.05 21.63-0.76 21.63-1.46 21.83-1.46L21.83-1.46Q22.41-1.46 23.44-1.76 24.46-2.05 24.66-2.44L24.66-2.44Q24.8-2.73 24.8-3.08L24.8-3.08Q24.8-4.05 23.88-6.45L23.88-6.45 22.17-10.99Q21.97-11.18 21.83-11.18L21.83-11.18Q20.26-11.28 17.63-11.28 14.99-11.28 12.06-11.13L12.06-11.13Q11.77-11.13 11.77-10.94L11.77-10.94 9.91-6.4Q8.98-3.86 8.98-3.22 8.98-2.59 9.52-2.25L9.52-2.25Q9.96-1.95 11.06-1.71 12.16-1.46 12.55-1.46L12.55-1.46Q12.7-1.42 12.7-0.78 12.7-0.15 12.6 0.15L12.6 0.15Q12.35 0.15 10.3 0 8.25-0.15 6.98-0.15 5.71-0.15 3.98-0.02 2.25 0.1 1.51 0.15L1.51 0.15Q1.32-0.05 1.32-0.59L1.32-0.59Q1.32-1.46 1.42-1.46L1.42-1.46Q2-1.46 3.3-1.88 4.59-2.29 4.93-2.83L4.93-2.83Q5.86-4.3 6.79-6.64L6.79-6.64 15.87-28.61Q16.99-31.54 17.68-32.13L17.68-32.13Q18.07-32.47 18.51-32.47L18.51-32.47Q18.85-32.47 19.09-32.23ZM13.23-14.06L13.23-14.06Q14.94-13.92 16.75-13.92L16.75-13.92Q18.46-13.92 20.75-14.06L20.75-14.06 20.85-14.26 17.14-24.02 13.13-14.26Q13.13-14.06 13.23-14.06ZM50-29.79L50-29.79Q47.95-29.79 47.17-29.44L47.17-29.44Q46.63-29.2 46.58-24.37L46.58-24.37 46.58-18.75Q46.58-17.68 47.41-17.33 48.24-16.99 49.7-16.99L49.7-16.99 50.97-16.99Q52.78-16.99 54.22-18.7 55.66-20.41 55.66-23.14L55.66-23.14Q55.66-29.79 50-29.79ZM50.78-32.23L50.78-32.23Q52.05-32.23 53.44-31.96 54.83-31.69 56.32-31.05 57.81-30.42 58.98-29.49 60.15-28.56 60.89-27.05 61.62-25.54 61.62-23.63L61.62-23.63Q61.62-21 59.91-18.65 58.2-16.31 55.76-15.33L55.76-15.33Q55.37-15.19 55.56-14.84L55.56-14.84Q58.3-9.91 61.03-6.54L61.03-6.54Q62.74-4.44 64.72-2.95 66.7-1.46 68.36-1.46L68.36-1.46Q68.55-1.17 68.55-0.68L68.55-0.68Q68.55-0.2 68.36 0.2L68.36 0.2Q67.77 0.29 66.84 0.29L66.84 0.29Q64.35 0.29 62.33-0.29 60.3-0.88 58.81-2.03 57.32-3.17 56.35-4.25 55.37-5.32 54.29-6.98L54.29-6.98Q53.61-7.96 52.73-9.28 51.85-10.6 51.39-11.3 50.93-12.01 50.34-12.79 49.75-13.57 49.34-13.96 48.92-14.36 48.53-14.5L48.53-14.5Q48.24-14.65 47.36-14.65L47.36-14.65Q46.58-14.65 46.58-13.82L46.58-13.82 46.58-6.93Q46.58-4 46.97-2.78L46.97-2.78Q47.12-2.2 48.61-1.83 50.1-1.46 50.78-1.46L50.78-1.46Q50.97-1.46 50.97-0.63L50.97-0.63Q50.97-0.1 50.88 0.2L50.88 0.2Q45.51-0.1 43.94-0.1L43.94-0.1Q42.62-0.1 40.99-0.02 39.35 0.05 38.38 0.1L38.38 0.1 37.4 0.2Q37.25 0 37.25-0.68L37.25-0.68Q37.25-1.46 37.4-1.46L37.4-1.46Q38.03-1.46 39.28-1.78 40.52-2.1 40.72-2.54L40.72-2.54Q41.01-3.42 41.01-6.98L41.01-6.98 41.01-25.44Q41.01-28.22 40.72-29.44L40.72-29.44Q40.57-29.83 39.28-30.25 37.99-30.66 37.4-30.66L37.4-30.66Q37.2-30.66 37.2-31.4L37.2-31.4Q37.2-32.13 37.4-32.28L37.4-32.28Q42.58-32.13 43.89-32.13L43.89-32.13Q45.26-32.13 47.29-32.18 49.31-32.23 50.78-32.23ZM79.98-25.29L79.98-25.29 79.98-17.43Q79.98-17.29 80.05-17.21 80.12-17.14 80.22-17.09L80.22-17.09 80.27-17.09 80.66-17.09Q81.68-17.09 83.2-18.75L83.2-18.75Q87.1-22.95 91.79-28.52L91.79-28.52Q92.57-29.44 92.57-29.98L92.57-29.98Q92.57-30.47 91.5-30.66 90.42-30.86 89.69-30.86L89.69-30.86Q89.5-30.86 89.45-31.42 89.4-31.98 89.5-32.32L89.5-32.32Q94.92-32.03 95.41-32.03L95.41-32.03Q96.33-32.03 97.24-32.08 98.14-32.13 99.19-32.2 100.24-32.28 100.92-32.32L100.92-32.32Q101.02-32.13 101-31.49 100.97-30.86 100.83-30.86L100.83-30.86Q97.41-30.47 95.89-28.81L95.89-28.81 86.81-18.46Q86.27-17.82 86.91-17.09L86.91-17.09 98.33-3.52Q99.21-2.44 100.7-1.95 102.19-1.46 102.88-1.46L102.88-1.46Q103.12-1.46 103.12-0.54L103.12-0.54Q103.12-0.15 102.97 0.15L102.97 0.15Q97.11-0.15 96.28-0.15L96.28-0.15Q94.72-0.15 92.55-0.02 90.38 0.1 89.5 0.15L89.5 0.15Q89.3-0.05 89.3-0.76 89.3-1.46 89.5-1.46L89.5-1.46Q90.03-1.46 90.86-1.81 91.69-2.15 91.69-2.54L91.69-2.54Q91.69-2.78 90.33-4.59 88.96-6.4 86.57-9.2 84.17-12.01 81.83-14.45L81.83-14.45Q81.64-14.65 80.76-14.65L80.76-14.65Q79.98-14.65 79.98-14.06L79.98-14.06 79.98-6.84Q79.98-4.25 80.41-2.54L80.41-2.54Q80.51-2.2 81.76-1.83 83-1.46 83.44-1.46L83.44-1.46Q83.64-1.46 83.64-0.54L83.64-0.54Q83.64-0.15 83.54 0.15L83.54 0.15Q77.68-0.15 77.34-0.15L77.34-0.15Q76.36-0.15 75.29-0.1 74.21-0.05 72.92 0.02 71.63 0.1 70.84 0.15L70.84 0.15Q70.65-0.05 70.65-0.54L70.65-0.54Q70.65-1.46 70.84-1.46L70.84-1.46Q71.43-1.46 72.68-1.81 73.92-2.15 74.07-2.54L74.07-2.54Q74.46-4.05 74.46-6.64L74.46-6.64 74.46-25.49Q74.46-28.42 74.07-29.59L74.07-29.59Q73.87-29.98 72.7-30.35 71.53-30.71 70.94-30.71L70.94-30.71Q70.75-30.71 70.75-31.45L70.75-31.45Q70.75-32.23 70.84-32.32L70.84-32.32Q71.09-32.32 73.55-32.18 76.02-32.03 77.34-32.03L77.34-32.03Q77.73-32.03 83.59-32.32L83.59-32.32Q83.74-31.88 83.74-31.54L83.74-31.54Q83.74-30.71 83.54-30.71L83.54-30.71Q83.1-30.71 81.78-30.32 80.46-29.93 80.37-29.59L80.37-29.59Q79.98-28.08 79.98-25.29ZM106.14-10.11L106.14-10.11Q106.14-12.89 106.73-12.89L106.73-12.89 106.78-12.89 118.55-13.48 118.6-13.48Q118.89-13.48 118.89-13.04L118.89-13.04Q118.89-11.96 118.74-11.23 118.6-10.5 118.4-10.3L118.4-10.3 118.25-10.11 106.49-9.57Q106.44-9.57 106.39-9.57 106.34-9.57 106.24-9.72 106.14-9.86 106.14-10.11ZM128.36-32.13L128.36-32.13Q128.36-32.13 136.81-32.13L136.81-32.13Q144.77-32.13 149.23-27.44 153.7-22.75 153.7-16.41L153.7-16.41Q153.7-9.38 149.18-4.61 144.67 0.15 136.76 0.15L136.76 0.15Q135.73 0.15 132.73 0.05 129.73-0.05 128.41-0.05L128.41-0.05 121.91 0.15Q121.77 0 121.77-0.63L121.77-0.63Q121.77-1.46 121.91-1.46L121.91-1.46Q122.55-1.46 123.77-1.78 124.99-2.1 125.19-2.54L125.19-2.54Q125.53-3.56 125.53-6.98L125.53-6.98 125.53-25.44Q125.53-28.37 125.19-29.44L125.19-29.44Q125.04-29.98 123.82-30.32 122.6-30.66 121.87-30.66L121.87-30.66Q121.67-30.66 121.67-31.4L121.67-31.4Q121.67-32.08 121.87-32.28L121.87-32.28Q125.09-32.13 128.36-32.13ZM131.04-25.88L131.04-25.88 131.04-6.74Q131.04-4 131.58-3.13L131.58-3.13Q132.36-2.34 137.54-2.34L137.54-2.34Q147.45-2.34 147.45-16.6L147.45-16.6Q147.45-22.07 144.79-25.88 142.13-29.69 137.2-29.69L137.2-29.69 136.95-29.69Q132.27-29.69 131.68-28.91L131.68-28.91Q131.04-28.03 131.04-25.88ZM162.93-32.08L162.93-32.08Q165.08-32.08 170.5-32.25 175.92-32.42 178.7-32.42L178.7-32.42Q178.89-30.96 179.48-28.34 180.07-25.73 180.11-25.49L180.11-25.49Q179.87-25.24 179.09-25.24L179.09-25.24Q178.55-25.24 178.41-25.59L178.41-25.59Q176.79-29.93 172.16-29.93L172.16-29.93 169.62-29.93Q166-29.93 165.91-29.3L165.91-29.3Q165.61-27.93 165.61-25.34L165.61-25.34 165.61-17.68Q165.61-17.38 167.76-17.38L167.76-17.38 170.3-17.38Q170.35-17.38 170.5-17.38L170.5-17.38Q173.33-17.38 173.86-17.63 174.4-17.87 174.69-19.34L174.69-19.34Q174.84-20.07 174.99-20.56L174.99-20.56Q175.04-20.9 175.77-20.9L175.77-20.9Q176.45-20.9 176.7-20.65L176.7-20.65 176.7-11.43Q176.5-11.23 175.77-11.23L175.77-11.23Q175.13-11.23 174.99-11.62L174.99-11.62Q174.65-12.94 174.38-13.57 174.11-14.21 174.04-14.26 173.96-14.31 173.62-14.55L173.62-14.55Q172.99-14.94 169.13-14.94L169.13-14.94Q165.61-14.94 165.61-14.55L165.61-14.55 165.61-6.98Q165.61-4.3 166.05-3.03L166.05-3.03Q166.3-2.39 169.37-2.39L169.37-2.39 171.18-2.39Q174.99-2.39 176.99-3.42L176.99-3.42Q177.77-3.81 178.75-5.13 179.72-6.45 180.26-8.11L180.26-8.11Q180.31-8.4 180.94-8.4L180.94-8.4Q182.02-8.4 182.31-8.11L182.31-8.11Q182.17-7.67 181.6-6.1 181.04-4.54 180.75-3.74 180.46-2.93 180.11-1.76 179.77-0.59 179.68 0.15L179.68 0.15Q177.72 0.15 171.59 0 165.47-0.15 162.98-0.05L162.98-0.05 156.48 0.15Q156.34 0 156.34-0.63L156.34-0.63Q156.34-1.46 156.48-1.46L156.48-1.46Q157.12-1.46 158.34-1.78 159.56-2.1 159.75-2.54L159.75-2.54Q160.09-3.56 160.09-6.98L160.09-6.98 160.09-25.44Q160.09-28.37 159.75-29.44L159.75-29.44Q159.61-29.98 158.39-30.32 157.17-30.66 156.43-30.66L156.43-30.66Q156.24-30.66 156.24-31.4L156.24-31.4Q156.24-32.08 156.43-32.28L156.43-32.28Q159.66-32.08 162.93-32.08ZM190.76-32.03L190.76-32.03Q191.44-32.03 197.45-32.32L197.45-32.32Q197.59-32.13 197.59-31.42 197.59-30.71 197.4-30.71L197.4-30.71Q197.01-30.71 196.37-30.59 195.74-30.47 195.05-30.05 194.37-29.64 194.37-29L194.37-29Q194.37-28.08 198.08-18.99L198.08-18.99Q198.67-17.43 199.06-16.6L199.06-16.6Q199.64-15.09 200.52-13.11 201.4-11.13 202.04-9.86 202.67-8.59 202.67-8.69L202.67-8.69 209.8-25.54Q210.78-27.83 210.78-28.91L210.78-28.91Q210.78-29.79 209.63-30.25 208.48-30.71 207.31-30.71L207.31-30.71Q207.11-30.71 207.14-31.42 207.16-32.13 207.26-32.32L207.26-32.32Q207.7-32.32 209.6-32.18 211.51-32.03 212.68-32.03L212.68-32.03Q213.95-32.03 215.61-32.15 217.27-32.28 218-32.32L218-32.32Q218.1-32.08 218.1-31.59L218.1-31.59Q218.1-30.76 218-30.76L218-30.76Q217.37-30.76 216.32-30.4 215.27-30.03 214.68-29.35L214.68-29.35Q213.95-28.17 212.58-25.05L212.58-25.05 202.43-1.27Q201.69 0.49 200.52 0.49L200.52 0.49Q200.03 0.49 199.74 0L199.74 0 189.68-25Q188.56-27.93 187.83-29.35L187.83-29.35Q187.49-29.98 186.31-30.35 185.14-30.71 184.46-30.71L184.46-30.71Q184.26-30.71 184.26-31.45L184.26-31.45Q184.26-32.13 184.41-32.32L184.41-32.32Q184.75-32.32 187.09-32.18 189.44-32.03 190.76-32.03ZM233.72-6.64L233.72-25.49Q233.72-28.42 233.33-29.59L233.33-29.59Q233.13-29.98 231.96-30.35 230.79-30.71 230.2-30.71L230.2-30.71Q230.01-30.71 230.01-31.45L230.01-31.45Q230.01-32.23 230.11-32.32L230.11-32.32Q230.35-32.32 232.82-32.18 235.28-32.03 236.6-32.03L236.6-32.03Q236.99-32.03 242.85-32.32L242.85-32.32Q243-31.88 243-31.54L243-31.54Q243-30.71 242.8-30.71L242.8-30.71Q242.36-30.71 241.04-30.32 239.73-29.93 239.63-29.59L239.63-29.59Q239.24-28.08 239.24-25.29L239.24-25.29 239.24-6.93Q239.24-4.25 239.68-2.54L239.68-2.54Q239.77-2.2 241.02-1.83 242.27-1.46 242.7-1.46L242.7-1.46Q242.9-1.46 242.9-0.54L242.9-0.54Q242.9-0.15 242.8 0.15L242.8 0.15Q236.94-0.15 236.6-0.15L236.6-0.15Q235.62-0.15 234.55-0.1 233.48-0.05 232.18 0.02 230.89 0.1 230.11 0.15L230.11 0.15Q229.91-0.05 229.91-0.54L229.91-0.54Q229.91-1.46 230.11-1.46L230.11-1.46Q230.69-1.46 231.94-1.81 233.18-2.15 233.33-2.54L233.33-2.54Q233.72-4.05 233.72-6.64L233.72-6.64ZM255.18-32.15Q258.47-32.03 260.57-32.03 262.67-32.03 265.99-32.15 269.31-32.28 271.32-32.32L271.32-32.32Q272.54-32.32 274.68-32.81L274.68-32.81 275.61-25.34Q275.27-25 274.29-25L274.29-25Q273.9-25 273.81-25.24L273.81-25.24Q273.12-27.93 272-28.88 270.88-29.83 268.48-29.83L268.48-29.83Q263.94-29.83 263.75-29L263.75-29Q263.31-27.59 263.31-24.41L263.31-24.41 263.31-6.79Q263.31-4.15 263.75-2.54L263.75-2.54Q263.8-2.2 265.07-1.83 266.33-1.46 266.77-1.46L266.77-1.46Q266.97-1.46 266.97-0.59L266.97-0.59Q266.97-0.1 266.87 0.2L266.87 0.2Q266.24 0.15 264.99 0.05 263.75-0.05 262.7-0.1 261.65-0.15 260.67-0.15L260.67-0.15Q259.35-0.15 257.03 0 254.71 0.15 254.18 0.2L254.18 0.2Q253.98 0 253.98-0.59L253.98-0.59Q253.98-1.46 254.18-1.46L254.18-1.46Q254.76-1.46 256.01-1.81 257.25-2.15 257.4-2.54L257.4-2.54Q257.79-3.86 257.79-6.59L257.79-6.59 257.79-24.27Q257.79-28.32 257.35-29L257.35-29Q256.96-29.83 252.71-29.83L252.71-29.83Q250.32-29.83 249.2-28.88 248.07-27.93 247.34-25.29L247.34-25.29Q247.29-25 246.85-25L246.85-25Q245.92-25 245.58-25.39L245.58-25.39 246.51-32.81Q248.66-32.32 249.88-32.32L249.88-32.32Q251.88-32.28 255.18-32.15Z" opacity="1" transform="matrix(1,0,0,1,0,0)" fill="#1c4b82" class="undefined-text-0" data-fill-palette-color="primary" id="text-0"></path></svg></g></svg></g><g transform="matrix(1,0,0,1,0,47.47951237203845)"><svg viewBox="0 0 316.416 15.253188530267348" height="15.253188530267348" width="316.416"><g transform="matrix(1,0,0,1,0,0)"><svg width="316.416" viewBox="1 -33.900001525878906 721.8400268554688 34.80000305175781" height="15.253188530267348" data-palette-color="#1c4b82"><path d="M18.2 0.9L18.2 0.9Q13.1 0.9 9.22-1.23 5.35-3.35 3.18-7.28 1-11.2 1-16.55L1-16.55Q1-21.75 3.15-25.65 5.3-29.55 9.38-31.73 13.45-33.9 19.25-33.9L19.25-33.9Q21.9-33.9 24.18-33.3 26.45-32.7 28.5-31.55L28.5-31.55 28.7-24.55 28.2-24.55 25.4-29.75Q24.75-31 24.2-31.55 23.65-32.1 22.8-32.4L22.8-32.4Q22-32.65 21.33-32.77 20.65-32.9 19.55-32.9L19.55-32.9Q16.45-32.9 14.08-31.25 11.7-29.6 10.4-26 9.1-22.4 9.1-16.55L9.1-16.55Q9.1-10.75 10.33-7.1 11.55-3.45 13.8-1.78 16.05-0.1 19-0.1L19-0.1Q19.45-0.1 19.88-0.18 20.3-0.25 20.7-0.35L20.7-0.35Q21.65-0.5 21.95-1.15 22.25-1.8 22.25-2.7L22.25-2.7 22.25-12.6Q22.25-14.55 20.25-15L20.25-15 17.95-15.6 17.95-16.1 32.05-16.1 32.05-15.6 31.35-15.4Q29.45-14.8 29.45-12.9L29.45-12.9 29.45-2.05Q26.85-0.6 24.18 0.15 21.5 0.9 18.2 0.9ZM58.2 0L33.9 0 33.9-0.5 34.95-0.9Q36-1.3 36.27-1.88 36.55-2.45 36.55-3.45L36.55-3.45 36.55-29.55Q36.55-30.55 36.25-31.15 35.95-31.75 34.95-32.1L34.95-32.1 33.9-32.5 33.9-33 46.65-33 46.65-32.5 45.75-32.1Q44.8-31.75 44.45-31.13 44.1-30.5 44.1-29.5L44.1-29.5 44.1-1 51.8-1Q53.65-1 54.52-1.9 55.4-2.8 56.2-4.5L56.2-4.5 58.15-8.7 58.65-8.7 58.2 0ZM76.55 0.9L76.55 0.9Q73.5 0.9 70.67-0.2 67.85-1.3 65.62-3.48 63.4-5.65 62.1-8.9 60.8-12.15 60.8-16.5L60.8-16.5Q60.8-20.8 62.1-24.05 63.4-27.3 65.65-29.48 67.9-31.65 70.72-32.77 73.55-33.9 76.55-33.9L76.55-33.9Q79.6-33.9 82.42-32.83 85.25-31.75 87.47-29.58 89.7-27.4 91-24.13 92.3-20.85 92.3-16.5L92.3-16.5Q92.3-12.25 91-8.97 89.7-5.7 87.47-3.53 85.25-1.35 82.42-0.23 79.6 0.9 76.55 0.9ZM76.55-0.15L76.55-0.15Q79.3-0.15 81-1.63 82.7-3.1 83.47-6.68 84.25-10.25 84.25-16.5L84.25-16.5Q84.25-22.8 83.47-26.38 82.7-29.95 81-31.43 79.3-32.9 76.55-32.9L76.55-32.9Q73.85-32.9 72.15-31.43 70.45-29.95 69.67-26.38 68.9-22.8 68.9-16.5L68.9-16.5Q68.9-10.25 69.67-6.68 70.45-3.1 72.15-1.63 73.85-0.15 76.55-0.15ZM107.09 0L94.39 0 94.39-0.5 95.29-0.85Q96.29-1.25 96.67-1.85 97.04-2.45 97.04-3.45L97.04-3.45 97.04-29.55Q97.04-30.6 96.67-31.2 96.29-31.8 95.29-32.15L95.29-32.15 94.39-32.5 94.39-33 108.74-33Q114.84-33 117.54-30.78 120.24-28.55 120.24-25.15L120.24-25.15Q120.24-22.6 118.27-20.53 116.29-18.45 111.49-17.6L111.49-17.6Q116.99-17 119.54-14.73 122.09-12.45 122.09-9.2L122.09-9.2Q122.09-7.6 121.39-5.98 120.69-4.35 119.02-3 117.34-1.65 114.44-0.83 111.54 0 107.09 0L107.09 0ZM104.44-32L104.44-17.65 106.59-17.65Q109.94-17.65 111.42-19.2 112.89-20.75 112.89-24.6L112.89-24.6Q112.89-28.6 111.54-30.3 110.19-32 107.14-32L107.14-32 104.44-32ZM104.44-16.65L104.44-1 106.94-1Q110.69-1 112.52-3 114.34-5 114.34-9.25L114.34-9.25Q114.34-13.25 112.59-14.95 110.84-16.65 106.84-16.65L106.84-16.65 104.44-16.65ZM130.49 0L123.59 0 123.59-0.5 124.84-0.95Q125.84-1.35 126.39-1.93 126.94-2.5 127.29-3.55L127.29-3.55 137.59-33.1 141.84-33.1 151.99-3.35Q152.39-2.25 152.89-1.68 153.39-1.1 154.44-0.7L154.44-0.7 155.04-0.5 155.04 0 142.34 0 142.34-0.5 143.09-0.75Q144.14-1.15 144.37-1.88 144.59-2.6 144.29-3.6L144.29-3.6 141.94-10.8 130.84-10.8 128.44-3.75Q128.09-2.65 128.22-2 128.34-1.35 129.39-0.95L129.39-0.95 130.49-0.5 130.49 0ZM136.59-27.35L131.19-11.8 141.64-11.8 136.59-27.35ZM181.09 0L156.79 0 156.79-0.5 157.84-0.9Q158.89-1.3 159.16-1.88 159.44-2.45 159.44-3.45L159.44-3.45 159.44-29.55Q159.44-30.55 159.14-31.15 158.84-31.75 157.84-32.1L157.84-32.1 156.79-32.5 156.79-33 169.54-33 169.54-32.5 168.64-32.1Q167.69-31.75 167.34-31.13 166.99-30.5 166.99-29.5L166.99-29.5 166.99-1 174.69-1Q176.54-1 177.41-1.9 178.29-2.8 179.09-4.5L179.09-4.5 181.04-8.7 181.54-8.7 181.09 0ZM205.43 0.9L205.43 0.9Q202.68 0.9 199.83 0.23 196.98-0.45 195.08-1.55L195.08-1.55 195.33-8.35 195.83-8.35 197.38-5.1Q198.08-3.7 198.88-2.63 199.68-1.55 201.08-0.95L201.08-0.95Q202.08-0.45 203.01-0.28 203.93-0.1 205.08-0.1L205.08-0.1Q208.13-0.1 209.91-1.75 211.68-3.4 211.68-6L211.68-6Q211.68-8.45 210.48-9.83 209.28-11.2 206.63-12.5L206.63-12.5 204.58-13.4Q200.28-15.3 197.86-17.78 195.43-20.25 195.43-24.35L195.43-24.35Q195.43-27.3 196.96-29.45 198.48-31.6 201.21-32.75 203.93-33.9 207.58-33.9L207.58-33.9Q210.23-33.9 212.61-33.2 214.98-32.5 216.73-31.3L216.73-31.3 216.43-25.3 215.93-25.3 213.88-29.05Q213.03-30.8 212.18-31.53 211.33-32.25 210.23-32.55L210.23-32.55Q209.58-32.75 209.03-32.83 208.48-32.9 207.63-32.9L207.63-32.9Q205.08-32.9 203.33-31.43 201.58-29.95 201.58-27.45L201.58-27.45Q201.58-24.9 202.93-23.38 204.28-21.85 206.88-20.65L206.88-20.65 209.18-19.65Q213.98-17.55 216.08-15.18 218.18-12.8 218.18-9.05L218.18-9.05Q218.18-4.65 214.86-1.88 211.53 0.9 205.43 0.9ZM237.93 0.9L237.93 0.9Q233.08 0.9 229.16-1.07 225.23-3.05 222.93-6.95 220.63-10.85 220.63-16.5L220.63-16.5Q220.63-20.8 222.03-24.05 223.43-27.3 225.86-29.5 228.28-31.7 231.46-32.8 234.63-33.9 238.18-33.9L238.18-33.9Q241.03-33.9 243.43-33.25 245.83-32.6 247.93-31.45L247.93-31.45 248.13-25.3 247.63-25.3 245.13-29.3Q244.63-30.25 244.03-31.03 243.43-31.8 242.53-32.2L242.53-32.2Q241.78-32.55 241.06-32.73 240.33-32.9 239.23-32.9L239.23-32.9Q236.33-32.9 233.96-31.35 231.58-29.8 230.16-26.23 228.73-22.65 228.73-16.45L228.73-16.45Q228.73-10.3 230.08-6.73 231.43-3.15 233.76-1.63 236.08-0.1 238.98-0.1L238.98-0.1Q240.58-0.1 241.53-0.33 242.48-0.55 243.43-1L243.43-1Q244.38-1.4 244.88-2.18 245.38-2.95 245.78-3.85L245.78-3.85 247.98-8.75 248.48-8.75 248.33-1.6Q246.23-0.5 243.63 0.2 241.03 0.9 237.93 0.9ZM263.58 0L250.88 0 250.88-0.5 251.88-0.9Q252.88-1.25 253.2-1.85 253.53-2.45 253.53-3.4L253.53-3.4 253.53-29.55Q253.53-30.55 253.2-31.15 252.88-31.75 251.88-32.1L251.88-32.1 250.88-32.5 250.88-33 263.58-33 263.58-32.5 262.73-32.15Q261.78-31.8 261.43-31.23 261.08-30.65 261.08-29.65L261.08-29.65 261.08-17.5 273.03-17.5 273.03-29.65Q273.03-30.65 272.7-31.23 272.38-31.8 271.38-32.15L271.38-32.15 270.48-32.5 270.48-33 283.23-33 283.23-32.5 282.23-32.1Q281.28-31.75 280.93-31.15 280.58-30.55 280.58-29.55L280.58-29.55 280.58-3.4Q280.58-2.45 280.93-1.85 281.28-1.25 282.23-0.9L282.23-0.9 283.23-0.5 283.23 0 270.48 0 270.48-0.5 271.38-0.8Q272.38-1.2 272.7-1.78 273.03-2.35 273.03-3.35L273.03-3.35 273.03-16.5 261.08-16.5 261.08-3.35Q261.08-1.5 262.73-0.8L262.73-0.8 263.58-0.5 263.58 0ZM301.08 0.9L301.08 0.9Q298.03 0.9 295.2-0.2 292.38-1.3 290.15-3.48 287.93-5.65 286.63-8.9 285.33-12.15 285.33-16.5L285.33-16.5Q285.33-20.8 286.63-24.05 287.93-27.3 290.18-29.48 292.43-31.65 295.25-32.77 298.08-33.9 301.08-33.9L301.08-33.9Q304.13-33.9 306.95-32.83 309.78-31.75 312-29.58 314.23-27.4 315.53-24.13 316.83-20.85 316.83-16.5L316.83-16.5Q316.83-12.25 315.53-8.97 314.23-5.7 312-3.53 309.78-1.35 306.95-0.23 304.13 0.9 301.08 0.9ZM301.08-0.15L301.08-0.15Q303.83-0.15 305.53-1.63 307.23-3.1 308-6.68 308.78-10.25 308.78-16.5L308.78-16.5Q308.78-22.8 308-26.38 307.23-29.95 305.53-31.43 303.83-32.9 301.08-32.9L301.08-32.9Q298.38-32.9 296.68-31.43 294.98-29.95 294.2-26.38 293.43-22.8 293.43-16.5L293.43-16.5Q293.43-10.25 294.2-6.68 294.98-3.1 296.68-1.63 298.38-0.15 301.08-0.15ZM334.57 0.9L334.57 0.9Q331.52 0.9 328.7-0.2 325.87-1.3 323.65-3.48 321.42-5.65 320.12-8.9 318.82-12.15 318.82-16.5L318.82-16.5Q318.82-20.8 320.12-24.05 321.42-27.3 323.67-29.48 325.92-31.65 328.75-32.77 331.57-33.9 334.57-33.9L334.57-33.9Q337.62-33.9 340.45-32.83 343.27-31.75 345.5-29.58 347.72-27.4 349.02-24.13 350.32-20.85 350.32-16.5L350.32-16.5Q350.32-12.25 349.02-8.97 347.72-5.7 345.5-3.53 343.27-1.35 340.45-0.23 337.62 0.9 334.57 0.9ZM334.57-0.15L334.57-0.15Q337.32-0.15 339.02-1.63 340.72-3.1 341.5-6.68 342.27-10.25 342.27-16.5L342.27-16.5Q342.27-22.8 341.5-26.38 340.72-29.95 339.02-31.43 337.32-32.9 334.57-32.9L334.57-32.9Q331.87-32.9 330.17-31.43 328.47-29.95 327.7-26.38 326.92-22.8 326.92-16.5L326.92-16.5Q326.92-10.25 327.7-6.68 328.47-3.1 330.17-1.63 331.87-0.15 334.57-0.15ZM376.72 0L352.42 0 352.42-0.5 353.47-0.9Q354.52-1.3 354.8-1.88 355.07-2.45 355.07-3.45L355.07-3.45 355.07-29.55Q355.07-30.55 354.77-31.15 354.47-31.75 353.47-32.1L353.47-32.1 352.42-32.5 352.42-33 365.17-33 365.17-32.5 364.27-32.1Q363.32-31.75 362.97-31.13 362.62-30.5 362.62-29.5L362.62-29.5 362.62-1 370.32-1Q372.17-1 373.05-1.9 373.92-2.8 374.72-4.5L374.72-4.5 376.67-8.7 377.17-8.7 376.72 0ZM403.92 0L390.32 0 390.32-0.5 391.22-0.8Q392.22-1.15 392.57-1.75 392.92-2.35 392.92-3.35L392.92-3.35Q392.97-6.35 392.97-9.4 392.97-12.45 392.97-15.5L392.97-15.5 392.97-17.5Q392.97-20.5 392.97-23.53 392.97-26.55 392.92-29.55L392.92-29.55Q392.92-30.55 392.64-31.15 392.37-31.75 391.42-32.1L391.42-32.1 390.32-32.5 390.32-33 414.52-33 414.87-24.7 414.37-24.7 411.52-29.95Q411.02-30.9 410.37-31.45 409.72-32 408.57-32L408.57-32 400.52-32Q400.47-28.45 400.47-24.75 400.47-21.05 400.47-17.4L400.47-17.4 405.67-17.4Q406.82-17.4 407.37-17.9 407.92-18.4 408.42-19.35L408.42-19.35 409.47-21.25 409.97-21.25 409.97-12.5 409.47-12.5 408.37-14.4Q407.87-15.3 407.34-15.85 406.82-16.4 405.67-16.4L405.67-16.4 400.47-16.4Q400.47-12.9 400.47-9.73 400.47-6.55 400.52-3.5L400.52-3.5Q400.52-1.55 402.42-0.95L402.42-0.95 403.92-0.5 403.92 0ZM432.86 0.9L432.86 0.9Q429.81 0.9 426.99-0.2 424.16-1.3 421.94-3.48 419.71-5.65 418.41-8.9 417.11-12.15 417.11-16.5L417.11-16.5Q417.11-20.8 418.41-24.05 419.71-27.3 421.96-29.48 424.21-31.65 427.04-32.77 429.86-33.9 432.86-33.9L432.86-33.9Q435.91-33.9 438.74-32.83 441.56-31.75 443.79-29.58 446.01-27.4 447.31-24.13 448.61-20.85 448.61-16.5L448.61-16.5Q448.61-12.25 447.31-8.97 446.01-5.7 443.79-3.53 441.56-1.35 438.74-0.23 435.91 0.9 432.86 0.9ZM432.86-0.15L432.86-0.15Q435.61-0.15 437.31-1.63 439.01-3.1 439.79-6.68 440.56-10.25 440.56-16.5L440.56-16.5Q440.56-22.8 439.79-26.38 439.01-29.95 437.31-31.43 435.61-32.9 432.86-32.9L432.86-32.9Q430.16-32.9 428.46-31.43 426.76-29.95 425.99-26.38 425.21-22.8 425.21-16.5L425.21-16.5Q425.21-10.25 425.99-6.68 426.76-3.1 428.46-1.63 430.16-0.15 432.86-0.15ZM463.51 0L450.71 0 450.71-0.5 451.76-0.85Q452.76-1.2 453.06-1.78 453.36-2.35 453.36-3.4L453.36-3.4 453.36-29.55Q453.36-30.55 453.09-31.13 452.81-31.7 451.86-32.05L451.86-32.05 450.71-32.5 450.71-33 465.01-33Q470.91-33 474.06-30.78 477.21-28.55 477.21-24.6L477.21-24.6Q477.21-22.4 475.56-20.2 473.91-18 470.36-16.8L470.36-16.8 477.31-3Q477.76-2.15 478.34-1.63 478.91-1.1 479.86-0.7L479.86-0.7 480.51-0.45 480.51 0 471.56 0 464.16-15.75 460.76-15.75 460.76-3.4Q460.76-2.45 461.06-1.85 461.36-1.25 462.31-0.95L462.31-0.95 463.51-0.5 463.51 0ZM460.76-32L460.76-16.75 463.16-16.75Q466.76-16.75 468.36-18.68 469.96-20.6 469.96-24.4L469.96-24.4Q469.96-28.25 468.46-30.13 466.96-32 463.41-32L463.41-32 460.76-32ZM507.15 0.15L503.7 0.15 494.85-29.6Q494.5-30.75 494.1-31.28 493.7-31.8 492.7-32.25L492.7-32.25 492.1-32.5 492.1-33 505.35-33 505.35-32.5 504.3-32.1Q503.15-31.65 502.75-31 502.35-30.35 502.7-29.2L502.7-29.2 508.15-8.4 514.05-25.85 512.9-29.4Q512.55-30.45 512.25-31 511.95-31.55 511.25-31.9L511.25-31.9 510.15-32.5 510.15-33 522.7-33 522.7-32.5 521.15-31.9Q520.15-31.55 520.03-30.88 519.9-30.2 520.25-29.15L520.25-29.15 526.61-7.9 532.61-28.75Q532.95-29.95 532.86-30.85 532.75-31.75 531.61-32.15L531.61-32.15 530.55-32.5 530.55-33 537.5-33 537.5-32.5 536.2-32Q535.2-31.65 534.8-30.9 534.4-30.15 534.11-29.05L534.11-29.05 525.8 0.15 522.36 0.15 514.86-23.35 507.15 0.15ZM564 0L539.05 0 539.05-0.5 540.2-0.95Q541.05-1.3 541.38-1.88 541.7-2.45 541.7-3.45L541.7-3.45 541.7-29.55Q541.7-30.55 541.43-31.13 541.15-31.7 540.2-32.05L540.2-32.05 539.05-32.5 539.05-33 563-33 563.3-25.3 562.8-25.3 560.65-30Q560.2-30.9 559.7-31.45 559.2-32 558.2-32L558.2-32 549.2-32 549.2-17.55 554.55-17.55Q555.55-17.55 556.08-18.07 556.6-18.6 557-19.5L557-19.5 558-21.5 558.5-21.5 558.5-12.5 558-12.5 557-14.6Q556.55-15.5 556.05-16.03 555.55-16.55 554.55-16.55L554.55-16.55 549.2-16.55 549.2-1 559.3-1Q560.3-1 560.85-1.53 561.4-2.05 561.75-3L561.75-3 563.8-7.7 564.3-7.7 564 0ZM579.5 0L566.8 0 566.8-0.5 567.7-0.85Q568.7-1.25 569.07-1.85 569.45-2.45 569.45-3.45L569.45-3.45 569.45-29.55Q569.45-30.6 569.07-31.2 568.7-31.8 567.7-32.15L567.7-32.15 566.8-32.5 566.8-33 581.15-33Q587.25-33 589.95-30.78 592.65-28.55 592.65-25.15L592.65-25.15Q592.65-22.6 590.67-20.53 588.7-18.45 583.9-17.6L583.9-17.6Q589.4-17 591.95-14.73 594.5-12.45 594.5-9.2L594.5-9.2Q594.5-7.6 593.8-5.98 593.1-4.35 591.42-3 589.75-1.65 586.85-0.83 583.95 0 579.5 0L579.5 0ZM576.85-32L576.85-17.65 579-17.65Q582.35-17.65 583.82-19.2 585.3-20.75 585.3-24.6L585.3-24.6Q585.3-28.6 583.95-30.3 582.6-32 579.55-32L579.55-32 576.85-32ZM576.85-16.65L576.85-1 579.35-1Q583.1-1 584.92-3 586.75-5 586.75-9.25L586.75-9.25Q586.75-13.25 585-14.95 583.25-16.65 579.25-16.65L579.25-16.65 576.85-16.65ZM619.89 0L607.59 0 607.59-0.5 608.64-0.9Q610.24-1.55 610.24-3.45L610.24-3.45 610.24-29.55Q610.24-31.55 608.64-32.1L608.64-32.1 607.59-32.5 607.59-33 620.79-33Q626.09-33 629.92-31.03 633.74-29.05 635.82-25.38 637.89-21.7 637.89-16.55L637.89-16.55Q637.89-11.3 635.64-7.6 633.39-3.9 629.37-1.95 625.34 0 619.89 0L619.89 0ZM617.74-32L617.74-1 619.89-1Q623.49-1 625.69-2.43 627.89-3.85 628.92-7.23 629.94-10.6 629.94-16.5L629.94-16.5Q629.94-22.4 628.92-25.78 627.89-29.15 625.74-30.58 623.59-32 620.09-32L620.09-32 617.74-32ZM664.94 0L639.99 0 639.99-0.5 641.14-0.95Q641.99-1.3 642.32-1.88 642.64-2.45 642.64-3.45L642.64-3.45 642.64-29.55Q642.64-30.55 642.37-31.13 642.09-31.7 641.14-32.05L641.14-32.05 639.99-32.5 639.99-33 663.94-33 664.24-25.3 663.74-25.3 661.59-30Q661.14-30.9 660.64-31.45 660.14-32 659.14-32L659.14-32 650.14-32 650.14-17.55 655.49-17.55Q656.49-17.55 657.02-18.07 657.54-18.6 657.94-19.5L657.94-19.5 658.94-21.5 659.44-21.5 659.44-12.5 658.94-12.5 657.94-14.6Q657.49-15.5 656.99-16.03 656.49-16.55 655.49-16.55L655.49-16.55 650.14-16.55 650.14-1 660.24-1Q661.24-1 661.79-1.53 662.34-2.05 662.69-3L662.69-3 664.74-7.7 665.24-7.7 664.94 0ZM684.54 0.15L680.84 0.15 670.14-29.65Q669.79-30.65 669.21-31.23 668.64-31.8 667.64-32.1L667.64-32.1 666.44-32.5 666.44-33 680.84-33 680.84-32.5 679.29-32.05Q678.14-31.75 678.01-31 677.89-30.25 678.24-29.15L678.24-29.15 685.64-7.2 693.09-29.2Q693.49-30.35 693.46-31.1 693.44-31.85 692.29-32.15L692.29-32.15 690.99-32.5 690.99-33 697.99-33 697.99-32.5 696.64-32.1Q695.69-31.85 695.29-31.23 694.89-30.6 694.54-29.6L694.54-29.6 684.54 0.15ZM710.09 0.9L710.09 0.9Q707.34 0.9 704.49 0.23 701.64-0.45 699.74-1.55L699.74-1.55 699.99-8.35 700.49-8.35 702.04-5.1Q702.74-3.7 703.54-2.63 704.34-1.55 705.74-0.95L705.74-0.95Q706.74-0.45 707.66-0.28 708.59-0.1 709.74-0.1L709.74-0.1Q712.79-0.1 714.56-1.75 716.34-3.4 716.34-6L716.34-6Q716.34-8.45 715.14-9.83 713.94-11.2 711.29-12.5L711.29-12.5 709.24-13.4Q704.94-15.3 702.51-17.78 700.09-20.25 700.09-24.35L700.09-24.35Q700.09-27.3 701.61-29.45 703.14-31.6 705.86-32.75 708.59-33.9 712.24-33.9L712.24-33.9Q714.89-33.9 717.26-33.2 719.64-32.5 721.39-31.3L721.39-31.3 721.09-25.3 720.59-25.3 718.54-29.05Q717.69-30.8 716.84-31.53 715.99-32.25 714.89-32.55L714.89-32.55Q714.24-32.75 713.69-32.83 713.14-32.9 712.29-32.9L712.29-32.9Q709.74-32.9 707.99-31.43 706.24-29.95 706.24-27.45L706.24-27.45Q706.24-24.9 707.59-23.38 708.94-21.85 711.54-20.65L711.54-20.65 713.84-19.65Q718.64-17.55 720.74-15.18 722.84-12.8 722.84-9.05L722.84-9.05Q722.84-4.65 719.51-1.88 716.19 0.9 710.09 0.9Z" opacity="1" transform="matrix(1,0,0,1,0,0)" fill="#1c4b82" class="undefined-text-1" data-fill-palette-color="secondary" id="text-1"></path></svg></g></svg></g></svg></g></svg></g><g></g></svg></g></svg></g></svg></g><g mask="url(#f5dffaec-f266-481c-9676-728def397c2a)"><g transform="matrix(2.622459679061181, 0, 0, 2.622459679061181, 81.71614919765295, 1.0000000000000142)"><svg xmlns="http://www.w3.org/2000/svg" xmlns:xlink="http://www.w3.org/1999/xlink" version="1.1" x="0" y="0" viewBox="5.69999885559082 3.200000047683716 88.50000762939453 93.50000762939453" enable-background="new 0 0 100 100" xml:space="preserve" height="93.50000762939453" width="88.50000762939453" class="icon-none" data-fill-palette-color="accent" id="none"><path d="M83.5 3.2c-11.2 0-22.3 0-33.5 0 0 0 0 0 0 0-11.2 0-22.5 0-33.7 0-6 0-10.6 4.5-10.6 10.4 0 18.6 0 37.1 0 55.7 0 1.1 0.2 2.2 0.5 3.2 1.3 4.4 5.2 7.3 9.8 7.3 2.6 0 5.2 0 7.8 0 1.4 3.1 3.4 6 5.9 8.5 5.4 5.4 12.6 8.4 20.3 8.4s14.9-3 20.3-8.4c2.5-2.5 4.5-5.4 5.9-8.5 2.4 0 4.8 0 7.2 0 1.7 0 3.4-0.2 4.9-1 3.9-2 5.9-5.2 5.9-9.6 0-18.4 0-36.9 0-55.3C94.2 7.7 89.8 3.2 83.5 3.2zM82.5 8.6c1.9 0 3.4 1.5 3.4 3.4s-1.5 3.4-3.4 3.4c-1.9 0-3.4-1.5-3.4-3.4S80.6 8.6 82.5 8.6zM70.7 8.6c1.9 0 3.4 1.5 3.4 3.4s-1.5 3.4-3.4 3.4c-1.9 0-3.4-1.5-3.4-3.4S68.9 8.6 70.7 8.6zM59 8.6c1.9 0 3.4 1.5 3.4 3.4s-1.5 3.4-3.4 3.4c-1.9 0-3.4-1.5-3.4-3.4S57.1 8.6 59 8.6zM27 68.1c0-2 0.3-4.1 0.8-6h8.4c-0.3 2.1-0.4 4.2-0.4 6.3 0 1.9 0.1 3.8 0.3 5.7-2.8 0-5.6 0-8.3 0C27.3 72.1 27 70.1 27 68.1zM41.5 68.4c0-2.1 0.2-4.2 0.5-6.3h16c0.3 1.9 0.4 3.8 0.4 5.7 0 2.1-0.2 4.2-0.5 6.3-5.4 0-10.7 0-16.1 0C41.6 72.2 41.5 70.2 41.5 68.4zM43.2 56.3c1.2-4 2.9-7.7 5.2-11.2 1.1-0.1 2.2-0.1 3.3 0 2.2 3.5 3.9 7.2 5 11.2H43.2zM59.4 47.1c4.3 1.9 8 5.2 10.4 9.3h-7.1C61.9 53.1 60.8 50 59.4 47.1zM63.7 62h8.5c0.5 2 0.8 4 0.8 6 0 2-0.3 4-0.8 6-2.8 0-5.7 0-8.5 0 0.3-2.1 0.4-4.2 0.4-6.3C64.1 65.8 64 63.9 63.7 62zM37.3 56.3h-7.1c2.5-4.1 6.2-7.4 10.6-9.3C39.3 50 38.1 53.1 37.3 56.3zM30.3 79.8c0.2 0 0.5 0 0.7 0 2.1 0 4.1 0 6.2 0 0.8 3.2 1.9 6.2 3.3 9.1C36.2 87 32.6 83.8 30.3 79.8zM48.1 91c-2.2-3.5-3.9-7.2-5-11.1 4.5 0 9 0 13.6 0-1.2 4-2.9 7.7-5.2 11.2C50.2 91.1 49.2 91.1 48.1 91zM59 89.2c1.5-3 2.7-6.1 3.5-9.4 2.4 0 4.8 0 7.2 0C67.2 84 63.5 87.3 59 89.2zM88.4 21.9c0 15.8 0 31.6 0 47.4 0 2.9-1.9 4.8-4.8 4.8-1.8 0-3.7 0-5.5 0 0.4-1.9 0.6-3.9 0.6-6 0-7.7-3-14.9-8.4-20.3-5.4-5.4-12.6-8.4-20.3-8.4s-14.9 3-20.3 8.4c-5.4 5.4-8.4 12.6-8.4 20.3 0 2 0.2 4 0.6 6-1.8 0-3.6 0-5.5 0-3 0-4.8-1.8-4.8-4.8 0-15.8 0-31.6 0-47.5 0-0.3 0-0.5 0-0.9 25.6 0 51.1 0 76.7 0C88.4 21.2 88.4 21.6 88.4 21.9z" fill="#1c4b82" data-fill-palette-color="accent"></path></svg></g></g></svg></g><defs><mask id="f5dffaec-f266-481c-9676-728def397c2a"><rect width="640" height="400" fill="white"></rect><rect width="348.05760000000004" height="80.86875946624741" fill="black" x="145.97119999999998" y="159.5656202668763" id="transform-me" transform="matrix(1,0,0,1,-122.24000000000001,-76.4)"></rect></mask></defs></svg><rect width="395.52" height="247.2" fill="none" stroke="none" visibility="hidden"></rect></g></svg></g></svg>